<?xml version="1.0" standalone="no"?>
<!DOCTYPE svg PUBLIC "-//W3C//DTD SVG 20010904//EN"
 "http://www.w3.org/TR/2001/REC-SVG-20010904/DTD/svg10.dtd">
<svg version="1.0" xmlns="http://www.w3.org/2000/svg"
 width="500.000000pt" height="500.000000pt" viewBox="0 0 500.000000 500.000000"
 preserveAspectRatio="xMidYMid meet">
<metadata>
Created by potrace 1.14, written by Peter Selinger 2001-2017
</metadata>
<g transform="translate(0.000000,500.000000) scale(0.100000,-0.100000)"
fill="#000000" stroke="none">
<path d="M1880 4627 c-110 -26 -151 -63 -171 -155 -10 -46 -9 -73 3 -144 14
-84 14 -89 -5 -105 -29 -27 -18 -100 21 -133 18 -16 32 -39 36 -63 11 -60 43
-124 70 -143 22 -14 26 -24 26 -65 0 -58 6 -63 114 -85 55 -11 80 -12 95 -5
11 6 28 11 39 11 23 0 33 28 25 73 -4 30 -2 34 35 50 46 20 60 39 97 128 15
35 35 73 46 84 25 28 34 78 20 113 -9 21 -8 38 4 77 25 85 16 212 -21 291 -12
26 -27 35 -82 54 -83 28 -268 36 -352 17z"/>
<path d="M2894 4436 c1 -19 3 -32 5 -30 2 2 10 -4 18 -14 8 -9 12 -11 8 -4 -3
6 -1 12 5 12 7 0 10 7 6 15 -8 22 10 18 26 -4 14 -19 14 -19 26 0 11 17 9 18
-10 16 -14 -1 -22 3 -20 11 1 6 -2 12 -7 12 -13 0 -32 -26 -24 -33 3 -4 1 -7
-5 -7 -6 0 -10 12 -9 26 1 15 -3 29 -9 31 -6 2 -10 -10 -10 -31z"/>
<path d="M2863 4432 c-13 -2 -23 -7 -23 -12 0 -4 -8 -10 -18 -13 -23 -5 -36
-44 -15 -44 8 0 11 7 8 19 -5 15 -1 17 25 14 26 -3 29 -1 18 12 -11 13 -10 15
4 9 10 -3 20 -2 24 4 8 13 4 16 -23 11z"/>
<path d="M3000 4395 c13 -15 8 -19 -22 -16 -10 1 -18 -2 -18 -7 0 -9 47 -8 56
1 7 7 -7 37 -18 37 -6 0 -5 -6 2 -15z"/>
<path d="M3039 4391 c11 -7 11 -9 0 -13 -8 -3 3 -11 23 -18 21 -8 40 -22 44
-32 3 -10 12 -18 20 -18 9 0 12 -5 8 -12 -4 -7 -3 -10 1 -5 9 8 95 -70 95 -86
0 -5 9 -22 21 -38 11 -16 17 -34 13 -40 -4 -7 -3 -9 3 -6 9 6 35 -39 39 -68 4
-25 17 -55 24 -55 5 0 6 9 3 20 -3 11 -10 20 -15 20 -5 0 -6 5 -3 10 13 21
-78 170 -142 231 -35 34 -63 65 -63 70 0 5 -9 9 -21 9 -12 0 -23 8 -26 20 -3
11 -13 20 -22 20 -13 0 -13 -2 -2 -9z"/>
<path d="M2774 4382 c-11 -7 -34 -45 -34 -56 0 -3 8 2 18 12 10 9 17 19 15 21
-1 2 2 10 8 18 13 14 10 17 -7 5z"/>
<path d="M2797 4327 c-32 -13 -54 -26 -51 -30 4 -4 0 -7 -9 -7 -9 0 -17 -6
-18 -12 -1 -7 -5 -2 -9 12 -8 24 -8 24 -9 2 -1 -12 -14 -46 -30 -75 -36 -64
-46 -97 -31 -97 6 0 8 5 5 10 -3 6 -1 10 5 10 6 0 10 6 9 13 -1 6 2 22 7 34
12 29 7 -278 -6 -332 -5 -22 -12 -56 -15 -75 -21 -119 -69 -276 -111 -362 -28
-54 -37 -45 101 -110 95 -46 100 -49 98 -78 -1 -25 2 -30 22 -30 31 0 92 -31
100 -49 3 -8 -1 -22 -10 -30 -14 -14 -17 -14 -26 -1 -9 13 -10 12 -5 -2 3 -10
2 -18 -3 -18 -14 0 -32 -52 -25 -73 8 -24 28 -47 43 -47 5 0 17 -7 25 -16 9
-8 16 -11 16 -5 0 6 5 11 11 11 5 0 7 -4 4 -10 -3 -5 1 -10 10 -10 13 0 14 -4
5 -20 -6 -11 -7 -37 -4 -60 4 -23 3 -40 -3 -40 -13 0 -12 -33 1 -42 7 -5 6 -8
-3 -8 -11 0 -10 -4 3 -19 16 -18 14 -47 -3 -37 -3 3 -7 -4 -7 -15 0 -11 4 -15
9 -10 5 5 17 7 26 4 14 -4 14 -3 1 6 -12 9 -12 11 -1 11 8 0 19 -7 25 -16 10
-13 12 -13 12 5 0 11 -4 18 -7 15 -4 -2 -10 0 -14 6 -3 5 1 10 10 10 9 0 13 5
10 10 -7 11 -4 12 37 14 15 1 33 8 40 15 11 11 10 12 -2 6 -8 -5 -27 -9 -42
-10 -21 -1 -25 1 -17 11 6 7 17 10 24 8 8 -3 22 -1 32 5 15 9 14 10 -11 8 -21
-1 -29 3 -31 16 -2 9 1 14 7 11 10 -6 5 52 -8 98 -4 12 0 15 16 11 12 -3 20 0
20 6 0 7 -4 9 -10 6 -5 -3 -10 1 -10 9 0 11 9 16 30 16 20 0 30 5 30 15 0 8 5
15 10 15 6 0 11 10 11 23 1 18 3 16 9 -8 l8 -30 1 35 c0 19 -6 48 -14 64 -8
15 -15 37 -15 47 0 13 -6 17 -21 14 -17 -3 -19 -2 -9 10 6 8 17 12 24 9 7 -3
19 2 26 11 7 8 19 15 26 15 8 0 14 9 14 20 0 11 6 20 13 20 8 0 7 3 -3 10 -11
7 -9 11 12 19 l26 10 7 208 c10 264 0 604 -21 692 -9 41 -24 77 -39 93 -65 70
-224 96 -328 55z m27 -1129 c-3 -4 0 -8 7 -8 7 0 9 -3 6 -6 -11 -11 -36 17
-30 33 5 11 7 12 14 2 4 -7 5 -17 3 -21z"/>
<path d="M2715 4330 c-3 -5 -1 -10 4 -10 6 0 11 5 11 10 0 6 -2 10 -4 10 -3 0
-8 -4 -11 -10z"/>
<path d="M2620 4086 c-5 -15 -10 -35 -10 -44 1 -9 7 1 15 23 16 44 11 63 -5
21z"/>
<path d="M2601 4004 c0 -11 3 -14 6 -6 3 7 2 16 -1 19 -3 4 -6 -2 -5 -13z"/>
<path d="M3330 3975 c-11 -13 -10 -14 5 -9 13 5 16 4 11 -4 -4 -7 -2 -12 3
-12 13 0 14 10 2 28 -6 10 -10 10 -21 -3z"/>
<path d="M2580 3929 c0 -5 5 -7 10 -4 6 3 10 8 10 11 0 2 -4 4 -10 4 -5 0 -10
-5 -10 -11z"/>
<path d="M3360 3935 c0 -5 5 -17 10 -25 5 -8 10 -10 10 -5 0 6 -5 17 -10 25
-5 8 -10 11 -10 5z"/>
<path d="M2566 3869 c-8 -42 0 -50 9 -9 4 17 5 34 2 36 -2 3 -7 -10 -11 -27z"/>
<path d="M3380 3878 c0 -9 5 -20 10 -23 13 -8 13 5 0 25 -8 13 -10 13 -10 -2z"/>
<path d="M3400 3827 c0 -10 7 -25 15 -33 19 -19 19 -7 0 26 -11 20 -14 21 -15
7z"/>
<path d="M1805 3810 c3 -5 12 -7 20 -3 21 7 19 13 -6 13 -11 0 -18 -4 -14 -10z"/>
<path d="M2146 3812 c-3 -6 -1 -14 5 -18 8 -5 9 -3 4 6 -8 13 16 10 59 -6 9
-3 16 -1 16 5 0 6 -8 11 -17 11 -10 0 -28 3 -39 6 -12 3 -25 1 -28 -4z"/>
<path d="M2540 3810 c-9 -6 -10 -10 -3 -10 6 0 15 5 18 10 8 12 4 12 -15 0z"/>
<path d="M1758 3803 c7 -3 16 -2 19 1 4 3 -2 6 -13 5 -11 0 -14 -3 -6 -6z"/>
<path d="M2292 3805 c7 -8 87 -9 95 -2 3 4 -18 7 -47 7 -29 0 -51 -2 -48 -5z"/>
<path d="M1675 3786 c-19 -8 -25 -15 -17 -20 7 -4 12 -3 12 2 0 5 15 14 33 20
17 5 25 10 17 11 -8 0 -28 -6 -45 -13z"/>
<path d="M2240 3790 c0 -5 6 -10 14 -10 8 0 18 5 21 10 3 6 -3 10 -14 10 -12
0 -21 -4 -21 -10z"/>
<path d="M2520 3778 c0 -14 -10 -16 -64 -15 -35 1 -62 -1 -59 -5 2 -5 35 -8
73 -8 l68 0 -10 -36 c-7 -27 -6 -39 3 -48 9 -8 11 -7 6 6 -3 9 -2 29 2 45 5
18 3 37 -6 53 -9 17 -13 20 -13 8z"/>
<path d="M1792 3771 c-11 -6 -10 -10 4 -15 20 -8 32 0 18 14 -5 5 -15 5 -22 1z"/>
<path d="M1601 3745 c-30 -26 -38 -62 -14 -62 10 0 10 4 1 15 -10 11 -7 17 12
32 13 10 30 16 37 13 9 -4 11 0 7 11 -8 20 -7 21 -43 -9z"/>
<path d="M2258 3763 c6 -2 18 -2 25 0 6 3 1 5 -13 5 -14 0 -19 -2 -12 -5z"/>
<path d="M3434 3755 c5 -11 9 -24 10 -30 1 -5 7 -19 13 -30 5 -11 8 -27 6 -35
-4 -12 -3 -13 5 -1 7 10 4 28 -10 60 -19 46 -38 74 -24 36z"/>
<path d="M1735 3750 c-3 -5 -2 -10 4 -10 5 0 13 5 16 10 3 6 2 10 -4 10 -5 0
-13 -4 -16 -10z"/>
<path d="M1670 3740 c-18 -12 -2 -12 25 0 13 6 15 9 5 9 -8 0 -22 -4 -30 -9z"/>
<path d="M2333 3725 c0 -13 3 -22 7 -20 5 3 10 0 13 -7 2 -7 2 -4 0 7 -3 11
-5 26 -5 33 -2 23 -15 12 -15 -13z"/>
<path d="M1888 3733 c7 -3 16 -2 19 1 4 3 -2 6 -13 5 -11 0 -14 -3 -6 -6z"/>
<path d="M2136 3732 c-3 -5 9 -9 26 -10 24 -1 28 2 18 8 -19 12 -37 13 -44 2z"/>
<path d="M1513 3661 c-10 -16 -9 -19 5 -16 9 1 23 -2 30 -8 8 -6 12 -6 12 1 0
6 9 9 21 7 17 -4 19 -2 8 11 -6 8 -14 12 -17 9 -3 -3 -12 1 -21 8 -14 11 -14
10 -2 -5 8 -11 9 -18 3 -18 -6 0 -15 7 -19 15 -7 12 -10 12 -20 -4z"/>
<path d="M3483 3642 c0 -12 5 -22 9 -22 11 0 10 12 -2 30 -7 12 -9 10 -7 -8z"/>
<path d="M2347 3644 c-4 -4 -7 -12 -7 -18 0 -6 4 -5 9 3 5 8 8 -20 7 -72 0
-47 2 -83 6 -81 4 3 9 -19 11 -48 2 -29 2 6 0 77 -5 123 -11 154 -26 139z"/>
<path d="M1480 3615 c-10 -12 -10 -15 3 -15 9 0 19 -5 23 -12 4 -6 3 -8 -3 -5
-6 4 -16 1 -22 -7 -9 -11 -8 -14 6 -12 24 2 33 16 23 37 -5 9 -6 19 -3 23 3 3
2 6 -4 6 -6 0 -16 -7 -23 -15z"/>
<path d="M2505 3619 c-4 -6 -5 -12 -2 -15 2 -3 7 2 10 11 7 17 1 20 -8 4z"/>
<path d="M3491 3596 c-12 -14 -12 -16 1 -11 17 7 42 -40 32 -57 -5 -7 -2 -8 6
-3 10 6 12 4 7 -8 -3 -9 1 -21 11 -29 16 -12 16 -11 2 6 -14 18 -13 19 3 13
46 -18 50 -18 20 4 -17 13 -40 41 -50 62 -17 35 -20 37 -32 23z"/>
<path d="M1450 3575 c-7 -8 -9 -15 -6 -15 4 0 0 -7 -9 -16 -20 -20 -11 -32 10
-14 9 7 14 19 11 25 -2 7 1 18 7 24 6 6 8 11 5 11 -3 0 -11 -7 -18 -15z"/>
<path d="M2472 3504 c-13 -42 -20 -79 -17 -82 3 -3 5 2 5 12 0 9 4 15 8 12 4
-2 9 5 9 17 1 12 7 41 14 65 6 23 10 45 7 47 -2 2 -14 -30 -26 -71z"/>
<path d="M2332 3505 c0 -16 2 -22 5 -12 2 9 2 23 0 30 -3 6 -5 -1 -5 -18z"/>
<path d="M1384 3485 c-16 -13 -24 -24 -17 -25 6 0 14 6 16 13 4 9 7 9 14 0 6
-9 12 -7 21 7 18 29 -1 32 -34 5z"/>
<path d="M3614 3472 c2 -9 9 -17 16 -17 7 0 15 -6 18 -14 3 -8 0 -11 -7 -7 -6
4 -11 4 -10 -1 3 -20 -2 -23 -17 -9 -16 16 -34 13 -34 -5 0 -6 6 -9 13 -6 6 2
21 -3 31 -12 13 -11 17 -11 11 -2 -5 9 -3 12 6 9 8 -3 14 -10 14 -16 0 -5 34
-39 75 -75 41 -35 86 -76 99 -90 13 -15 27 -24 31 -22 4 3 14 -3 21 -12 12
-15 12 -16 -4 -10 -18 7 22 -46 85 -114 14 -16 24 -29 22 -29 -3 0 0 -9 6 -20
11 -21 30 -19 30 3 0 7 -4 6 -10 -3 -8 -13 -10 -13 -10 1 0 37 43 31 60 -9 6
-15 20 -38 31 -52 38 -46 -44 93 -97 166 -53 72 -99 118 -54 53 13 -19 28 -36
32 -37 5 -2 5 -9 2 -14 -4 -6 -2 -8 3 -5 20 13 22 -21 2 -39 -17 -16 -19 -16
-19 -1 0 10 -5 17 -11 17 -5 0 -7 5 -3 12 4 6 3 8 -3 5 -11 -7 -28 20 -24 36
1 5 -3 6 -9 2 -5 -3 -10 -1 -10 4 0 22 -2 26 -16 42 -16 18 -7 34 12 18 8 -6
14 -6 18 0 7 11 -154 162 -241 225 -43 32 -60 40 -59 28z m88 -72 c-1 -6 2 -9
7 -6 5 3 17 -2 28 -12 10 -9 13 -13 6 -8 -8 5 -16 7 -18 4 -3 -3 7 -11 23 -19
47 -24 81 -52 76 -61 -3 -5 -13 -3 -22 4 -15 12 -16 11 -3 -4 7 -10 17 -15 22
-12 5 3 9 -1 9 -8 0 -9 3 -9 10 2 9 14 14 7 11 -13 -1 -5 3 -6 9 -2 15 10 24
-23 10 -40 -10 -12 -21 -5 -72 43 -101 95 -105 99 -123 106 -10 3 -15 9 -12
13 4 3 2 12 -4 19 -6 7 -8 18 -4 24 9 14 51 -13 47 -30z m311 -337 c-3 -7 -9
-13 -13 -13 -16 0 -22 21 -9 36 14 17 31 0 22 -23z"/>
<path d="M2273 3445 c0 -22 2 -30 4 -17 2 12 2 30 0 40 -3 9 -5 -1 -4 -23z"/>
<path d="M1287 3414 c-57 -45 -66 -57 -46 -69 6 -4 9 0 7 11 -2 11 3 19 12 19
8 1 14 6 13 13 -2 7 4 12 12 12 8 0 15 5 15 11 0 8 6 7 17 -2 14 -12 16 -12 8
0 -6 11 -4 13 11 7 10 -4 15 -4 11 0 -4 4 -2 13 4 20 5 7 6 15 1 18 -4 3 -34
-15 -65 -40z"/>
<path d="M1404 3434 c-18 -14 -18 -15 4 -4 12 6 22 13 22 15 0 8 -5 6 -26 -11z"/>
<path d="M2436 3386 c-4 -16 -5 -31 -1 -34 3 -3 5 3 5 14 0 16 2 17 10 4 11
-18 12 -3 1 25 -7 17 -9 16 -15 -9z"/>
<path d="M1339 3393 c-2 -4 -31 -30 -64 -58 -40 -34 -57 -44 -52 -30 7 19 6
19 -7 2 -11 -14 -15 -15 -25 -4 -6 8 -8 18 -4 23 4 5 -18 -15 -49 -45 -32 -30
-56 -57 -53 -59 2 -3 -7 -13 -20 -24 -31 -24 -136 -181 -181 -270 -36 -71 -47
-110 -13 -45 11 21 24 35 29 32 6 -3 7 1 4 9 -6 16 25 76 39 76 4 0 6 4 3 8
-3 5 3 21 13 36 15 23 20 25 30 12 10 -12 9 -20 -5 -42 -10 -14 -19 -35 -19
-46 -2 -20 12 -12 17 11 2 8 11 23 21 33 10 10 15 23 12 28 -4 6 -2 10 4 10 6
0 29 26 53 58 46 63 195 214 246 251 l33 23 -6 -29 -5 -28 11 28 c8 19 8 32 1
39 -5 5 -11 6 -13 1z m-124 -106 c4 5 5 2 1 -5 -5 -7 -14 -11 -22 -8 -8 3 -11
0 -8 -8 3 -9 -5 -13 -30 -12 -27 1 -32 4 -24 14 6 7 17 11 25 8 8 -3 11 -1 8
4 -12 20 6 32 24 16 10 -9 21 -13 26 -9z m-45 -46 c0 -12 -66 -72 -73 -66 -4
3 -5 2 -2 -1 2 -4 -6 -21 -19 -38 -13 -17 -26 -39 -29 -48 -9 -26 -43 -40 -56
-24 -8 9 -7 18 5 32 8 10 12 13 8 5 -4 -9 -3 -12 4 -7 6 4 9 12 6 20 -3 7 19
36 48 66 29 29 47 50 41 46 -7 -4 -13 -5 -13 -1 0 7 35 20 61 22 10 1 19 -2
19 -6z"/>
<path d="M1430 3386 c0 -9 5 -16 10 -16 6 0 10 4 10 9 0 6 -4 13 -10 16 -5 3
-10 -1 -10 -9z"/>
<path d="M1545 3387 c8 -4 15 -20 15 -35 0 -15 -4 -22 -8 -17 -11 16 -32 16
-26 1 6 -14 16 -15 47 -1 10 4 23 2 32 -5 9 -7 18 -10 22 -6 3 3 1 6 -6 6 -7
0 -9 5 -6 10 4 6 11 8 16 5 5 -4 9 -1 9 4 0 6 -7 11 -15 11 -8 0 -15 5 -15 11
0 5 4 8 9 5 5 -3 15 2 22 12 13 15 12 16 -3 4 -10 -8 -18 -9 -22 -3 -4 5 -24
9 -46 8 -27 -1 -35 -4 -25 -10z m55 -19 c0 -11 -5 -18 -12 -16 -16 6 -18 35
-2 35 8 0 14 -9 14 -19z"/>
<path d="M3600 3395 c0 -5 5 -17 10 -25 5 -8 10 -10 10 -5 0 6 -5 17 -10 25
-5 8 -10 11 -10 5z"/>
<path d="M1671 3354 c0 -11 3 -14 6 -6 3 7 2 16 -1 19 -3 4 -6 -2 -5 -13z"/>
<path d="M2361 3334 c0 -11 3 -14 6 -6 3 7 2 16 -1 19 -3 4 -6 -2 -5 -13z"/>
<path d="M3621 3334 c0 -11 3 -14 6 -6 3 7 2 16 -1 19 -3 4 -6 -2 -5 -13z"/>
<path d="M1200 3329 c0 -5 5 -7 10 -4 6 3 10 8 10 11 0 2 -4 4 -10 4 -5 0 -10
-5 -10 -11z"/>
<path d="M1336 3303 c-8 -24 9 -73 24 -73 6 0 9 -4 6 -9 -6 -10 69 -69 119
-93 25 -12 34 -13 55 -2 l25 14 -25 0 c-20 0 -22 2 -10 11 13 9 13 10 0 6 -8
-2 -14 -10 -12 -16 2 -13 -24 -15 -32 -2 -4 5 0 12 6 15 7 3 3 3 -8 1 -12 -3
-28 0 -35 8 -8 7 -22 16 -32 20 -10 4 -15 11 -12 17 3 6 -8 18 -24 28 -25 14
-30 22 -26 42 7 33 -10 61 -19 33z m11 -25 c-3 -8 -6 -5 -6 6 -1 11 2 17 5 13
3 -3 4 -12 1 -19z m48 -68 c3 -5 1 -10 -4 -10 -6 0 -11 5 -11 10 0 6 2 10 4
10 3 0 8 -4 11 -10z"/>
<path d="M1376 3305 c-3 -8 -1 -17 3 -20 5 -3 11 2 15 10 3 8 1 17 -3 20 -5 3
-11 -2 -15 -10z"/>
<path d="M2387 3121 c2 -102 5 -187 8 -189 3 -3 5 26 5 64 1 65 2 68 15 43 17
-32 82 -66 97 -51 7 7 6 10 -3 9 -8 0 -22 1 -33 1 -16 2 -17 4 -5 20 13 15 12
16 -3 4 -9 -8 -19 -9 -22 -4 -3 6 1 12 9 16 8 3 15 11 15 18 0 9 -3 10 -8 2
-13 -20 -41 -11 -52 17 -7 15 -10 51 -8 78 1 28 0 51 -4 51 -4 0 -9 24 -11 53
-2 28 -2 -31 0 -132z"/>
<path d="M2416 3302 c-2 -4 -7 -25 -11 -46 -6 -28 -5 -37 4 -32 6 4 9 11 6 15
-2 5 0 22 5 40 8 29 7 40 -4 23z"/>
<path d="M3636 3255 c13 -54 25 -73 18 -30 -3 22 -10 45 -15 50 -7 7 -8 0 -3
-20z"/>
<path d="M1426 3223 c-6 -14 -5 -15 5 -6 7 7 10 15 7 18 -3 3 -9 -2 -12 -12z"/>
<path d="M1924 3224 c15 -10 14 -12 -4 -17 -20 -5 -29 -37 -10 -37 14 0 12
-28 -4 -74 -8 -22 -16 -33 -18 -25 -3 8 -8 11 -12 8 -4 -3 -2 -19 4 -34 9 -23
14 -26 38 -20 24 6 25 5 9 -7 -16 -12 -10 -13 45 -8 35 4 80 3 101 -1 34 -6
37 -4 32 12 -4 11 -2 19 4 19 6 0 11 -5 11 -11 0 -8 5 -7 15 1 11 9 12 15 5
20 -7 5 -6 11 5 20 16 14 19 94 2 83 -4 -3 -17 3 -27 12 -11 10 -26 14 -38 10
-11 -3 -23 -1 -26 4 -4 6 -12 8 -19 5 -7 -2 -17 6 -22 18 -8 18 -21 24 -58 29
-39 4 -46 3 -33 -7z"/>
<path d="M3090 3175 c-7 -9 -10 -18 -6 -22 3 -3 6 -1 6 6 0 7 4 10 9 6 5 -3
12 -1 15 4 11 17 -11 21 -24 6z"/>
<path d="M2339 3135 c-9 -14 8 -55 23 -55 9 0 10 2 2 8 -7 4 -14 18 -16 32 -1
14 -6 21 -9 15z"/>
<path d="M3662 3115 c0 -16 2 -22 5 -12 2 9 2 23 0 30 -3 6 -5 -1 -5 -18z"/>
<path d="M1553 3123 c-32 -6 -28 -19 8 -32 39 -13 39 -13 39 -1 0 6 -3 9 -7 9
-5 -1 -17 -1 -28 0 -18 2 -18 3 5 16 25 15 23 16 -17 8z"/>
<path d="M3101 3114 c0 -11 3 -14 6 -6 3 7 2 16 -1 19 -3 4 -6 -2 -5 -13z"/>
<path d="M3140 3105 c0 -14 4 -25 8 -25 4 0 9 11 10 25 1 14 -3 25 -8 25 -6 0
-10 -11 -10 -25z"/>
<path d="M2460 3084 c0 -8 5 -12 10 -9 6 3 10 10 10 16 0 5 -4 9 -10 9 -5 0
-10 -7 -10 -16z"/>
<path d="M3106 3077 c3 -10 9 -15 12 -12 3 3 0 11 -7 18 -10 9 -11 8 -5 -6z"/>
<path d="M1631 3061 c13 -11 26 -18 28 -15 7 7 -21 34 -36 34 -10 0 -8 -6 8
-19z"/>
<path d="M1844 3043 c0 -25 4 -37 9 -30 7 9 10 9 14 0 2 -7 9 -13 15 -13 5 0
1 12 -10 28 -10 15 -21 34 -24 42 -3 8 -5 -4 -4 -27z"/>
<path d="M2560 3069 c0 -5 5 -7 10 -4 6 3 10 8 10 11 0 2 -4 4 -10 4 -5 0 -10
-5 -10 -11z"/>
<path d="M2732 3040 c-16 -26 -15 -37 3 -37 10 0 15 10 15 29 0 33 -1 34 -18
8z"/>
<path d="M2325 3032 c-8 -22 2 -27 20 -9 19 19 19 24 0 24 -8 0 -17 -7 -20
-15z"/>
<path d="M2360 2991 c0 -17 2 -31 4 -31 8 0 13 51 5 56 -5 3 -9 -9 -9 -25z"/>
<path d="M2765 3010 c-3 -5 -1 -10 4 -10 6 0 11 5 11 10 0 6 -2 10 -4 10 -3 0
-8 -4 -11 -10z"/>
<path d="M3206 3005 c-3 -8 2 -21 11 -30 13 -14 14 -18 1 -33 -11 -13 -13 -27
-6 -60 5 -24 12 -42 14 -39 3 2 1 23 -5 46 -5 24 -5 43 0 47 5 3 9 -1 9 -8 0
-10 2 -10 9 1 5 7 6 22 4 32 -4 14 -1 18 10 13 18 -7 32 12 16 22 -8 4 -9 3
-5 -4 4 -7 2 -12 -3 -12 -6 0 -16 9 -23 20 -15 24 -24 25 -32 5z"/>
<path d="M3636 3003 c-4 -13 -11 -23 -16 -23 -5 0 -6 8 -3 17 5 12 1 11 -15
-5 -18 -18 -30 -21 -69 -17 l-48 4 55 -10 c38 -8 55 -8 58 -1 2 6 9 9 16 6 16
-6 39 21 34 38 -3 8 -8 4 -12 -9z"/>
<path d="M1702 2990 c0 -14 2 -19 5 -12 2 6 2 18 0 25 -3 6 -5 1 -5 -13z"/>
<path d="M2620 3006 c0 -2 7 -7 16 -10 8 -3 12 -2 9 4 -6 10 -25 14 -25 6z"/>
<path d="M4023 2998 c-10 -14 79 -203 90 -191 11 10 8 25 -3 18 -5 -3 -10 0
-10 8 0 8 -12 35 -26 61 -14 25 -22 51 -18 58 4 7 4 10 -1 6 -13 -13 -35 25
-23 39 6 7 8 13 5 13 -2 0 -9 -6 -14 -12z"/>
<path d="M1627 2853 c-5 -103 -3 -168 5 -202 12 -52 28 -60 28 -13 0 19 -3 23
-9 13 -6 -10 -11 -2 -16 27 -4 23 -4 46 0 51 10 16 15 202 6 241 -5 25 -9 -10
-14 -117z"/>
<path d="M1672 2980 c0 -14 2 -19 5 -12 2 6 2 18 0 25 -3 6 -5 1 -5 -13z"/>
<path d="M3365 2990 c-11 -5 -33 -9 -49 -9 -16 -1 -27 -4 -24 -7 10 -9 118 7
112 17 -6 11 -12 10 -39 -1z"/>
<path d="M3429 2989 c-10 -6 -4 -9 19 -9 17 0 32 2 32 4 0 9 -39 13 -51 5z"/>
<path d="M2535 2970 c11 -5 29 -9 40 -9 l20 0 -20 9 c-11 5 -29 9 -40 9 l-20
0 20 -9z"/>
<path d="M2340 2948 c0 -16 5 -28 10 -28 13 0 13 20 0 40 -8 12 -10 9 -10 -12z"/>
<path d="M2620 2960 c-24 -8 -23 -8 8 -9 20 -1 31 3 27 9 -3 6 -7 10 -8 9 -1
-1 -13 -5 -27 -9z"/>
<path d="M2690 2959 c0 -6 -4 -8 -8 -5 -5 3 -9 -10 -10 -29 -1 -19 3 -35 9
-35 6 0 9 8 8 18 -3 32 1 41 19 44 16 3 16 4 0 10 -10 4 -18 3 -18 -3z"/>
<path d="M2828 2953 c7 -3 16 -2 19 1 4 3 -2 6 -13 5 -11 0 -14 -3 -6 -6z"/>
<path d="M2321 2934 c0 -11 3 -14 6 -6 3 7 2 16 -1 19 -3 4 -6 -2 -5 -13z"/>
<path d="M944 2932 c-6 -4 -14 -20 -18 -37 -9 -35 -5 -32 18 13 17 34 17 36 0
24z"/>
<path d="M2702 2920 c0 -14 2 -19 5 -12 2 6 2 18 0 25 -3 6 -5 1 -5 -13z"/>
<path d="M2760 2931 c0 -9 116 -9 125 1 3 2 -24 5 -60 6 -36 1 -65 -2 -65 -7z"/>
<path d="M3251 2913 c-1 -13 3 -23 9 -23 5 0 9 -10 7 -22 -1 -15 3 -22 11 -20
8 1 11 -2 8 -7 -4 -5 -2 -12 4 -16 6 -4 8 -10 5 -15 -8 -13 6 -41 18 -33 6 4
8 -3 4 -19 -5 -17 -2 -30 9 -38 8 -7 13 -19 10 -27 -3 -8 -2 -11 4 -8 12 7 29
-26 22 -44 -3 -9 0 -11 8 -6 10 6 12 4 7 -9 -4 -10 -3 -15 3 -11 6 3 10 -3 10
-14 0 -12 5 -21 11 -21 12 0 13 -2 -26 87 -15 35 -31 61 -35 58 -4 -3 -8 5 -8
18 0 31 -80 198 -81 170z"/>
<path d="M4100 2921 c0 -5 7 -14 15 -21 8 -7 13 -15 11 -19 -2 -3 2 -12 10
-19 18 -17 18 -10 -3 33 -16 33 -33 47 -33 26z"/>
<path d="M1663 2880 c0 -25 2 -35 4 -22 2 12 2 32 0 45 -2 12 -4 2 -4 -23z"/>
<path d="M3231 2894 c0 -11 3 -14 6 -6 3 7 2 16 -1 19 -3 4 -6 -2 -5 -13z"/>
<path d="M3018 2877 c-3 -19 -2 -25 4 -19 6 6 8 18 6 28 -3 14 -5 12 -10 -9z"/>
<path d="M2660 2870 c0 -6 -23 -68 -50 -137 -28 -69 -49 -128 -47 -130 3 -2
13 19 23 46 9 27 21 48 26 45 4 -3 5 3 1 12 -4 12 -3 15 6 10 8 -5 11 -3 10 5
-5 23 11 70 21 64 6 -3 7 1 4 9 -3 9 -2 16 4 16 6 0 9 8 7 18 -1 9 2 22 7 29
5 7 5 14 -2 18 -5 3 -10 1 -10 -5z"/>
<path d="M2395 2860 c3 -5 8 -10 11 -10 2 0 4 5 4 10 0 6 -5 10 -11 10 -5 0
-7 -4 -4 -10z"/>
<path d="M899 2838 c-7 -12 -19 -29 -28 -36 -10 -9 -11 -11 -2 -6 11 5 13 3 8
-9 -14 -37 9 -14 25 25 20 45 17 64 -3 26z"/>
<path d="M2327 2840 c-10 -12 -21 -18 -26 -16 -11 7 -1 -86 11 -101 22 -28 73
14 82 69 10 63 -29 92 -67 48z"/>
<path d="M3023 2843 c-17 -6 -17 -20 0 -20 8 0 14 6 14 14 0 7 -1 13 -1 12 -1
0 -7 -3 -13 -6z"/>
<path d="M832 2813 c-20 -54 -25 -76 -13 -69 6 4 11 16 11 26 0 27 11 51 21
44 5 -3 6 2 3 10 -8 21 -10 20 -22 -11z"/>
<path d="M2247 2833 c-4 -3 -7 -13 -7 -20 0 -12 3 -12 15 1 8 8 15 17 15 20 0
8 -15 7 -23 -1z"/>
<path d="M4140 2826 c0 -7 -7 -19 -15 -26 -17 -14 -20 -30 -6 -30 5 0 12 10
16 23 4 13 8 17 12 9 2 -6 9 -10 14 -6 5 3 10 -2 10 -10 3 -29 4 -34 12 -42
12 -12 8 13 -9 56 -16 39 -34 53 -34 26z"/>
<path d="M3256 2814 c-4 -10 -1 -14 6 -12 15 5 23 28 10 28 -5 0 -13 -7 -16
-16z"/>
<path d="M2676 2803 c-3 -3 -6 -16 -6 -27 0 -17 2 -18 10 -6 6 10 10 11 10 3
0 -7 4 -13 9 -13 10 0 3 38 -9 45 -4 2 -10 2 -14 -2z"/>
<path d="M1662 2780 c0 -14 2 -19 5 -12 2 6 2 18 0 25 -3 6 -5 1 -5 -13z"/>
<path d="M2268 2793 c7 -3 16 -2 19 1 4 3 -2 6 -13 5 -11 0 -14 -3 -6 -6z"/>
<path d="M3230 2775 c0 -8 7 -15 15 -15 8 0 15 7 15 15 0 8 -7 15 -15 15 -8 0
-15 -7 -15 -15z"/>
<path d="M2266 2755 c8 -37 14 -45 14 -19 0 10 -5 26 -10 34 -8 11 -9 7 -4
-15z"/>
<path d="M3275 2752 c-3 -9 -1 -18 4 -20 6 -2 9 -16 6 -30 -5 -23 -4 -24 4 -7
9 20 10 20 10 1 1 -15 4 -17 13 -8 8 8 8 15 -2 26 -7 9 -10 22 -7 30 3 8 0 17
-8 20 -7 2 -16 -3 -20 -12z"/>
<path d="M861 2742 c-13 -25 -14 -32 -2 -32 9 0 23 41 16 48 -2 2 -8 -5 -14
-16z"/>
<path d="M4121 2755 c0 -5 4 -19 8 -29 7 -19 8 -19 13 2 4 12 2 20 -2 17 -5
-3 -11 1 -13 7 -3 7 -5 9 -6 3z"/>
<path d="M2705 2740 c3 -5 8 -10 11 -10 2 0 4 5 4 10 0 6 -5 10 -11 10 -5 0
-7 -4 -4 -10z"/>
<path d="M792 2683 c-7 -25 -11 -48 -8 -50 2 -2 7 11 11 29 7 27 9 30 15 14 5
-15 8 -16 12 -5 2 8 -1 24 -7 36 -10 20 -12 19 -23 -24z"/>
<path d="M4191 2714 c0 -11 3 -14 6 -6 3 7 2 16 -1 19 -3 4 -6 -2 -5 -13z"/>
<path d="M2637 2713 c-3 -5 -5 -20 -5 -35 0 -23 3 -25 14 -13 8 7 14 20 14 29
0 17 -16 30 -23 19z"/>
<path d="M841 2688 c4 -29 -2 -59 -10 -54 -4 3 -6 -7 -3 -22 5 -24 7 -22 19
23 16 61 16 65 3 65 -6 0 -10 -6 -9 -12z"/>
<path d="M4144 2676 c4 -15 9 -41 12 -55 3 -15 12 -28 19 -28 11 0 11 4 0 21
-8 12 -15 33 -17 48 -2 15 -8 31 -12 35 -5 4 -6 -5 -2 -21z"/>
<path d="M4195 2674 c9 -10 14 -26 11 -37 -3 -13 -2 -17 5 -10 14 14 0 63 -18
63 -12 0 -12 -3 2 -16z"/>
<path d="M2317 2633 c-3 -27 -9 -63 -12 -80 -6 -27 -4 -33 9 -33 13 0 16 13
16 80 0 44 -2 80 -4 80 -2 0 -6 -21 -9 -47z"/>
<path d="M2606 2665 c-3 -8 -1 -15 4 -15 6 0 10 7 10 15 0 8 -2 15 -4 15 -2 0
-6 -7 -10 -15z"/>
<path d="M2266 2644 c-4 -15 -4 -29 -1 -32 7 -7 34 29 35 46 0 23 -28 12 -34
-14z"/>
<path d="M3320 2666 c0 -2 7 -7 16 -10 8 -3 12 -2 9 4 -6 10 -25 14 -25 6z"/>
<path d="M2668 2638 c-7 -19 2 -38 19 -38 9 0 13 8 11 22 -3 25 -23 35 -30 16z"/>
<path d="M1610 2587 c0 -31 5 -59 10 -62 6 -3 11 -18 11 -33 1 -18 5 -12 11
21 6 26 14 47 19 47 5 0 9 4 9 10 0 5 -7 7 -15 4 -8 -4 -15 -17 -15 -31 0 -13
-4 -21 -10 -18 -5 3 -9 28 -8 56 0 27 -2 53 -6 56 -3 3 -6 -19 -6 -50z"/>
<path d="M2587 2621 c-3 -14 -1 -18 9 -14 16 6 18 19 5 27 -5 3 -11 -3 -14
-13z"/>
<path d="M3256 2621 c-3 -5 1 -11 9 -15 8 -3 15 -1 15 4 0 13 -18 22 -24 11z"/>
<path d="M770 2599 c0 -13 4 -30 9 -38 6 -9 8 -4 6 18 -3 38 -15 54 -15 20z"/>
<path d="M1705 2570 c5 -25 7 -64 6 -87 -1 -32 2 -43 13 -43 12 0 14 13 9 73
-3 44 -11 78 -20 87 -14 13 -15 10 -8 -30z"/>
<path d="M4210 2603 c0 -5 5 -15 10 -23 8 -12 10 -11 10 8 0 12 -4 22 -10 22
-5 0 -10 -3 -10 -7z"/>
<path d="M3369 2598 c-1 -2 -2 -22 -3 -44 -2 -31 1 -41 11 -37 8 3 13 -2 14
-13 0 -16 2 -15 9 4 5 12 14 22 20 22 5 0 10 5 10 11 0 8 -5 8 -15 -1 -18 -15
-20 1 -3 18 7 7 8 12 4 12 -4 0 -16 -10 -27 -22 -10 -13 -18 -18 -19 -11 0 6
5 15 10 18 6 3 10 11 10 16 0 6 -5 7 -12 3 -8 -5 -9 -2 -5 9 5 13 1 26 -4 15z"/>
<path d="M2537 2544 c-11 -31 -14 -51 -8 -58 11 -13 11 -56 0 -56 -4 0 -10
-16 -13 -35 -4 -19 -11 -35 -16 -35 -9 0 -2 30 19 82 5 15 6 30 2 33 -9 5 -47
-122 -58 -191 -5 -27 0 -38 25 -64 17 -16 37 -30 46 -30 20 0 32 40 15 52 -11
7 -11 11 -1 15 6 2 12 9 12 14 0 6 -8 5 -20 -1 -13 -7 -20 -7 -20 -1 0 6 -7 7
-17 4 -11 -4 -14 -3 -9 6 4 6 4 10 -1 9 -10 -4 -13 5 -13 32 0 11 6 20 14 20
7 0 21 17 30 38 14 34 15 34 11 7 -4 -22 -3 -26 5 -15 5 8 10 30 10 48 0 17 5
32 11 32 5 0 3 10 -5 22 -9 12 -16 32 -16 43 0 13 3 16 8 8 5 -7 8 4 9 27 1
22 1 40 0 40 -2 0 -10 -21 -20 -46z m-27 -294 c0 -14 -28 -19 -33 -5 -3 7 -3
15 0 18 7 7 33 -3 33 -13z m35 -30 c0 -7 -6 -15 -13 -18 -8 -2 -10 2 -5 15 6
16 5 16 -10 4 -10 -7 -17 -9 -17 -3 0 12 20 22 35 18 6 -2 10 -9 10 -16z"/>
<path d="M811 2558 c0 -7 4 -22 9 -33 7 -17 9 -15 9 13 1 17 -3 32 -9 32 -5 0
-10 -6 -9 -12z"/>
<path d="M4171 2540 c0 -29 1 -32 10 -17 7 11 7 23 0 35 -9 14 -10 11 -10 -18z"/>
<path d="M762 2520 c0 -19 2 -27 5 -17 2 9 2 25 0 35 -3 9 -5 1 -5 -18z"/>
<path d="M4226 2541 c-4 -5 -2 -20 3 -33 9 -21 10 -21 10 10 1 32 -3 39 -13
23z"/>
<path d="M1660 2531 c0 -6 5 -13 10 -16 6 -3 10 1 10 9 0 9 -4 16 -10 16 -5 0
-10 -4 -10 -9z"/>
<path d="M3420 2510 c0 -5 5 -10 10 -10 17 0 11 -18 -7 -23 -14 -4 -12 -5 5
-6 12 0 22 -6 22 -13 0 -6 2 -9 5 -6 8 7 -16 68 -26 68 -5 0 -9 -4 -9 -10z"/>
<path d="M1600 2444 c0 -41 3 -55 10 -44 9 14 5 88 -5 98 -3 3 -5 -21 -5 -54z"/>
<path d="M1658 2467 c3 -25 1 -29 -7 -17 -9 12 -11 9 -11 -15 0 -17 -5 -36
-12 -43 -7 -7 -9 -12 -5 -12 4 0 16 15 27 33 21 33 26 72 12 81 -5 3 -7 -9 -4
-27z"/>
<path d="M814 2385 c0 -55 1 -76 3 -47 2 29 2 74 0 100 -2 26 -3 2 -3 -53z"/>
<path d="M3370 2470 c0 -5 5 -10 10 -10 6 0 10 5 10 10 0 6 -4 10 -10 10 -5 0
-10 -4 -10 -10z"/>
<path d="M4184 2390 c0 -52 1 -74 3 -47 2 26 2 68 0 95 -2 26 -3 4 -3 -48z"/>
<path d="M2329 2420 l-5 -45 -8 33 c-14 55 -22 36 -18 -44 5 -82 -5 -102 -40
-83 -13 7 -18 6 -18 -4 0 -7 8 -14 18 -15 9 -1 26 -3 36 -4 24 -4 44 57 27 84
-8 13 -7 19 5 26 11 6 14 20 12 53 l-4 44 -5 -45z"/>
<path d="M3428 2410 c3 -34 -1 -55 -13 -74 -9 -14 -14 -33 -11 -42 8 -21 26
-8 26 19 0 12 7 31 15 41 8 11 13 29 9 40 -4 15 -3 17 4 7 6 -8 12 -9 16 -3
10 16 -2 36 -28 48 -22 10 -23 10 -18 -36z"/>
<path d="M756 2428 c-3 -13 -5 -32 -5 -43 1 -11 5 -2 10 19 10 42 6 62 -5 24z"/>
<path d="M3360 2421 c0 -17 18 -21 24 -6 3 9 0 15 -9 15 -8 0 -15 -4 -15 -9z"/>
<path d="M4242 2395 c0 -16 2 -22 5 -12 2 9 2 23 0 30 -3 6 -5 -1 -5 -18z"/>
<path d="M3361 2374 c0 -11 3 -14 6 -6 3 7 2 16 -1 19 -3 4 -6 -2 -5 -13z"/>
<path d="M3474 2374 c3 -8 2 -12 -3 -9 -11 6 -26 -33 -17 -42 3 -4 6 1 6 10 0
10 5 17 10 17 14 0 13 -23 -2 -38 -7 -7 -8 -12 -2 -12 5 0 15 9 22 20 13 22 6
70 -10 70 -6 0 -7 -7 -4 -16z"/>
<path d="M1586 2319 c-9 -95 -7 -137 8 -146 11 -7 12 -36 4 -168 -8 -148 -4
-266 10 -289 3 -6 4 -32 3 -58 -3 -48 -2 -48 42 -68 105 -47 283 -69 313 -39
22 22 11 51 -36 103 -37 41 -38 41 -30 101 9 63 33 368 32 398 -1 9 3 15 9 12
5 -4 9 -2 9 4 0 23 -20 20 -26 -4 -4 -18 -11 -24 -21 -21 -8 3 -22 7 -31 7 -9
1 -3 5 13 9 29 7 29 8 -10 10 l-40 3 45 7 c44 7 45 7 8 8 -46 2 -75 -7 -57
-19 27 -16 1 -18 -92 -7 -59 6 -97 16 -102 24 -4 8 -13 14 -20 14 -8 0 -6 -4
3 -11 12 -9 12 -10 -3 -5 -10 3 -20 6 -22 6 -2 0 -1 43 2 95 6 107 -1 127 -11
34z"/>
<path d="M758 2325 c2 -19 6 -35 8 -35 2 0 4 16 4 35 0 19 -4 35 -8 35 -4 0
-6 -16 -4 -35z"/>
<path d="M2540 2340 c-9 -16 -8 -18 5 -14 8 4 15 12 15 20 0 20 -7 17 -20 -6z"/>
<path d="M2339 2308 c-3 -22 -1 -34 4 -29 5 5 7 21 5 37 -3 27 -4 26 -9 -8z"/>
<path d="M3481 2282 c-6 -12 -17 -22 -24 -21 -9 0 -9 2 1 6 6 2 9 9 6 14 -3 6
-12 3 -19 -7 -8 -12 -26 -18 -49 -18 -21 0 -31 -3 -23 -8 17 -11 55 -10 62 2
3 5 11 7 18 4 18 -6 51 20 45 37 -3 10 -8 8 -17 -9z"/>
<path d="M4233 2265 c0 -22 2 -30 4 -17 2 12 2 30 0 40 -3 9 -5 -1 -4 -23z"/>
<path d="M2051 2274 c0 -11 3 -14 6 -6 3 7 2 16 -1 19 -3 4 -6 -2 -5 -13z"/>
<path d="M761 2265 c0 -36 15 -100 20 -85 3 8 -1 35 -7 60 -7 25 -12 36 -13
25z"/>
<path d="M2080 2264 c0 -9 5 -14 12 -12 18 6 21 28 4 28 -9 0 -16 -7 -16 -16z"/>
<path d="M2885 2270 c3 -5 25 -15 48 -21 66 -18 97 -31 97 -40 0 -5 -7 -9 -15
-9 -8 0 -15 3 -15 8 0 4 -29 16 -65 26 -75 21 -114 18 -219 -20 -46 -16 -84
-24 -112 -21 -27 2 -41 0 -38 -7 2 -6 -7 -51 -20 -100 -23 -86 -23 -89 -5
-107 10 -10 21 -15 23 -10 3 5 3 11 -1 14 -3 4 -8 27 -10 52 l-4 46 40 -20
c36 -19 55 -20 243 -17 190 3 259 10 421 46 36 8 38 7 34 -11 -3 -13 -1 -19 6
-16 7 2 12 9 12 15 0 25 14 21 24 -8 6 -17 15 -29 20 -26 13 8 20 -21 16 -62
-2 -25 0 -32 11 -28 20 8 17 -11 -3 -23 -17 -10 -17 -10 -1 -11 27 0 30 17 14
73 -25 89 -48 218 -43 244 3 18 1 23 -10 18 -11 -3 -13 -1 -9 10 3 8 1 15 -4
15 -6 0 -10 -4 -10 -10 0 -15 -67 -12 -74 3 -5 10 -7 10 -12 0 -3 -7 -12 -13
-20 -13 -7 0 -29 -9 -49 -20 -20 -11 -42 -20 -50 -20 -8 0 -15 -4 -15 -9 0 -5
-11 -11 -25 -13 -32 -7 -32 7 0 28 31 20 27 28 -7 15 -22 -8 -73 0 -130 22
-38 15 -49 16 -43 7z m460 -170 c3 -5 1 -10 -4 -10 -6 0 -11 5 -11 10 0 6 2
10 4 10 3 0 8 -4 11 -10z m15 -30 c0 -5 -2 -10 -4 -10 -3 0 -8 5 -11 10 -3 6
-1 10 4 10 6 0 11 -4 11 -10z m-810 -55 c0 -8 -4 -15 -10 -15 -5 0 -7 7 -4 15
4 8 8 15 10 15 2 0 4 -7 4 -15z m827 -37 c-3 -8 -6 -5 -6 6 -1 11 2 17 5 13 3
-3 4 -12 1 -19z"/>
<path d="M2988 2273 c6 -2 18 -2 25 0 6 3 1 5 -13 5 -14 0 -19 -2 -12 -5z"/>
<path d="M4173 2245 c0 -22 2 -30 4 -17 2 12 2 30 0 40 -3 9 -5 -1 -4 -23z"/>
<path d="M822 2240 c0 -19 2 -27 5 -17 2 9 2 25 0 35 -3 9 -5 1 -5 -18z"/>
<path d="M2808 2263 c12 -2 30 -2 40 0 9 3 -1 5 -23 4 -22 0 -30 -2 -17 -4z"/>
<path d="M2352 2243 c-1 -13 -6 -23 -12 -23 -5 0 -7 -7 -4 -15 4 -8 1 -15 -5
-15 -6 0 -11 7 -11 15 0 17 -26 20 -35 4 -4 -6 -13 -8 -21 -5 -8 3 -19 -4 -25
-16 -9 -18 -8 -24 7 -35 21 -16 50 -17 59 -3 4 6 10 8 14 5 5 -2 16 1 25 8 13
10 16 24 13 57 -2 25 -4 35 -5 23z m-13 -73 c-6 -4 -20 -5 -32 -2 -14 3 -18 1
-13 -6 8 -13 -12 -16 -39 -6 -28 11 4 24 53 22 24 -1 38 -4 31 -8z"/>
<path d="M1703 2206 c4 -10 -2 -16 -16 -19 -16 -3 -13 -5 10 -6 26 -1 30 2 26
19 -3 11 -10 20 -15 20 -6 0 -8 -6 -5 -14z"/>
<path d="M4207 2204 c-8 -8 3 -34 14 -34 5 0 9 9 9 20 0 19 -11 26 -23 14z"/>
<path d="M823 2185 c-10 -11 -10 -15 0 -19 8 -3 7 -8 -5 -16 -15 -9 -15 -15
-5 -38 6 -15 16 -31 22 -35 5 -4 -1 -7 -14 -5 -13 2 -28 -4 -34 -13 -14 -22
-1 -52 21 -47 15 4 17 -2 14 -44 -3 -33 -8 -48 -18 -48 -8 0 -14 4 -14 9 0 12
-35 20 -50 11 -7 -5 -9 -16 -5 -30 5 -16 1 -26 -14 -36 -12 -9 -21 -26 -21
-41 0 -23 3 -25 35 -21 27 3 36 0 41 -14 3 -10 10 -18 15 -18 5 0 9 -5 9 -10
0 -6 -10 -8 -24 -4 -27 6 -44 -12 -28 -28 6 -6 8 -24 5 -39 -5 -25 -2 -29 16
-29 12 0 24 -7 27 -15 7 -18 35 -20 52 -3 8 8 16 6 30 -12 22 -27 52 -22 52
10 0 17 32 40 56 40 14 0 1 -69 -16 -85 -11 -10 -17 -22 -14 -26 3 -5 1 -9 -5
-9 -12 0 -34 -75 -28 -98 2 -9 7 4 11 30 5 26 14 53 22 59 8 6 12 15 9 19 -3
4 2 14 11 21 13 11 18 10 26 -5 8 -14 17 -16 44 -12 28 6 36 3 49 -18 17 -26
46 -38 64 -26 7 3 14 26 17 51 3 24 6 44 7 44 22 2 85 47 95 67 25 52 -23 88
-77 58 -15 -8 -20 -3 -30 29 -15 52 -14 54 9 31 11 -11 31 -20 44 -20 44 0 43
51 -2 103 -14 16 -14 19 6 33 27 18 28 55 4 77 -24 22 -48 21 -70 -1 -18 -18
-19 -18 -42 0 -24 19 -71 24 -99 9 -14 -8 -21 -4 -35 20 -10 18 -13 28 -6 27
7 -2 17 4 23 13 14 22 1 53 -19 45 -8 -3 -12 -2 -9 4 3 6 1 10 -4 10 -6 0 -11
-5 -11 -12 0 -6 -3 -8 -7 -5 -3 4 -14 0 -24 -9 -17 -15 -20 -14 -52 17 -19 19
-36 41 -38 51 -3 13 -6 14 -16 3z m143 -322 c-10 -10 -19 5 -10 18 6 11 8 11
12 0 2 -7 1 -15 -2 -18z m-107 1 c-10 -12 -10 -20 -1 -34 6 -11 8 -22 3 -24
-14 -9 -23 44 -10 60 6 8 14 14 16 14 3 0 0 -7 -8 -16z m218 -39 c1 -27 -2
-43 -7 -40 -12 7 -14 85 -2 85 4 0 8 -20 9 -45z m-223 -51 c3 -8 2 -12 -4 -9
-6 3 -10 10 -10 16 0 14 7 11 14 -7z m153 -88 c-2 -6 -11 1 -21 16 -15 22 -15
30 -5 50 12 22 13 22 21 -16 5 -22 7 -44 5 -50z"/>
<path d="M2048 2193 c6 -2 18 -2 25 0 6 3 1 5 -13 5 -14 0 -19 -2 -12 -5z"/>
<path d="M2145 2185 l-30 -14 35 6 c27 3 31 2 20 -6 -10 -7 -11 -11 -2 -11 6
0 12 -4 12 -10 0 -15 -163 -13 -178 2 -9 9 -12 9 -12 0 0 -7 -11 -12 -23 -12
-24 0 -24 -2 -31 -132 -5 -111 5 -289 19 -344 5 -18 73 -45 138 -54 115 -17
258 19 265 66 4 28 -63 86 -119 103 -35 10 -40 16 -35 34 4 17 19 259 21 331
0 5 -7 11 -15 13 -13 4 -13 3 0 -6 8 -6 10 -11 4 -11 -6 0 -17 7 -24 15 -10
13 -9 15 11 16 21 1 21 2 4 6 -11 3 -22 9 -25 13 -3 5 -18 2 -35 -5z"/>
<path d="M4156 2160 c-4 -25 -9 -55 -9 -67 -2 -27 -8 -28 -47 -8 -26 13 -30
13 -51 -4 -22 -18 -22 -19 -6 -45 14 -21 15 -31 6 -47 -8 -16 -14 -18 -22 -10
-18 18 -82 13 -109 -8 -24 -19 -24 -19 -36 0 -15 23 -40 24 -70 3 -27 -19 -28
-44 -3 -75 18 -22 18 -23 -1 -55 -40 -67 4 -113 60 -62 23 21 24 21 17 3 -4
-11 -10 -32 -13 -47 -2 -16 -5 -28 -7 -28 -1 0 -16 7 -33 16 -59 29 -97 -26
-57 -83 14 -20 14 -22 -7 -26 -14 -2 -6 -5 17 -6 78 -3 85 -8 85 -61 0 -41 3
-50 22 -56 17 -5 28 0 48 22 21 24 34 29 72 30 36 1 48 -3 52 -15 2 -9 2 4 -1
29 -3 25 -13 57 -24 72 -16 23 -17 27 -3 39 10 9 15 25 12 49 -2 24 1 37 9 37
8 0 10 -9 7 -24 -5 -18 -1 -25 17 -32 23 -9 23 -12 -3 -15 -22 -2 -14 -40 9
-51 12 -5 24 -20 28 -32 7 -28 29 -30 47 -5 17 24 39 37 36 21 -4 -19 34 -24
47 -6 6 8 19 16 30 18 16 4 20 13 22 53 2 46 1 48 -23 43 -16 -3 -23 0 -19 7
3 6 8 19 11 29 4 12 12 16 23 11 29 -12 43 -9 55 9 9 15 6 22 -17 42 -23 20
-26 28 -18 44 17 30 -12 48 -44 27 -31 -21 -44 -20 -43 2 1 9 -2 29 -5 45 -5
19 -4 27 6 27 7 0 22 6 32 14 16 12 17 16 6 30 -7 9 -22 16 -32 16 -23 0 -23
4 -3 35 17 26 13 39 -16 55 -17 9 -19 8 -13 -7 6 -16 5 -16 -10 -4 -15 12 -17
12 -12 -2 4 -8 1 -18 -6 -23 -8 -4 -10 -3 -5 4 4 7 3 12 -3 12 -7 0 -7 10 0
29 6 17 9 40 7 53 -2 16 -6 9 -12 -22z m46 -341 c9 -6 9 -9 1 -9 -6 0 -15 5
-18 11 -4 6 -13 8 -21 5 -17 -7 -18 2 -1 37 l12 26 7 -31 c3 -17 12 -34 20
-39z m-222 -13 c0 -13 3 -31 6 -40 3 -9 2 -16 -4 -16 -5 0 -12 18 -14 40 -2
22 0 40 4 40 5 0 8 -11 8 -24z m220 -43 c0 -37 -1 -38 -13 -13 -9 17 -10 29
-2 37 15 18 15 17 15 -24z"/>
<path d="M1956 2165 c-3 -9 0 -15 10 -15 8 0 12 5 9 10 -4 7 8 8 37 4 32 -4
39 -3 28 5 -23 16 -77 13 -84 -4z"/>
<path d="M781 2144 c0 -11 3 -14 6 -6 3 7 2 16 -1 19 -3 4 -6 -2 -5 -13z"/>
<path d="M4205 2140 c3 -5 8 -10 11 -10 2 0 4 5 4 10 0 6 -5 10 -11 10 -5 0
-7 -4 -4 -10z"/>
<path d="M790 2106 c0 -9 5 -16 10 -16 6 0 10 4 10 9 0 6 -4 13 -10 16 -5 3
-10 -1 -10 -9z"/>
<path d="M3168 2053 c6 -2 18 -2 25 0 6 3 1 5 -13 5 -14 0 -19 -2 -12 -5z"/>
<path d="M2568 2043 c7 -3 16 -2 19 1 4 3 -2 6 -13 5 -11 0 -14 -3 -6 -6z"/>
<path d="M3098 2043 c7 -3 16 -2 19 1 4 3 -2 6 -13 5 -11 0 -14 -3 -6 -6z"/>
<path d="M2507 1959 c-3 -12 -2 -31 3 -42 10 -25 11 -24 15 21 3 37 -10 52
-18 21z"/>
<path d="M3399 1918 c-8 -16 -3 -45 7 -45 8 0 14 4 14 9 0 4 -4 8 -10 8 -5 0
-7 7 -4 15 5 12 -2 23 -7 13z"/>
<path d="M2532 1888 c-7 -7 -12 -18 -12 -25 0 -7 -4 -13 -10 -13 -5 0 -19 -21
-30 -46 -16 -34 -19 -52 -12 -72 14 -44 27 -35 24 18 -3 34 0 50 8 50 7 0 10
7 6 15 -3 8 -1 15 4 15 9 0 43 61 37 66 -2 2 -9 -2 -15 -8z"/>
<path d="M2468 1845 c-14 -37 -14 -43 -2 -38 8 3 14 15 14 27 0 12 5 27 11 33
6 6 7 13 2 16 -5 3 -16 -14 -25 -38z"/>
<path d="M3381 1844 c0 -11 3 -14 6 -6 3 7 2 16 -1 19 -3 4 -6 -2 -5 -13z"/>
<path d="M3417 1853 c-4 -3 -7 -11 -7 -17 0 -6 5 -5 12 2 6 6 9 14 7 17 -3 3
-9 2 -12 -2z"/>
<path d="M2540 1821 c-6 -12 -7 -21 -1 -21 10 0 24 30 17 37 -2 3 -9 -5 -16
-16z"/>
<path d="M3426 1813 c-6 -14 -5 -15 5 -6 7 7 10 15 7 18 -3 3 -9 -2 -12 -12z"/>
<path d="M3362 1793 c1 -18 5 -30 8 -28 9 5 6 43 -3 52 -4 4 -7 -7 -5 -24z"/>
<path d="M2440 1764 c-6 -14 -8 -30 -4 -35 3 -5 0 -9 -7 -9 -6 0 -9 -8 -6 -20
3 -11 1 -20 -4 -20 -5 0 -4 -10 2 -22 7 -13 13 -25 13 -28 2 -20 33 -39 55
-34 20 4 23 3 11 -5 -21 -15 2 -14 40 3 l33 13 -51 -1 c-29 0 -52 3 -52 9 0 5
13 8 29 7 31 -4 50 12 26 22 -8 3 -12 12 -9 21 11 27 -6 16 -18 -12 l-11 -28
-7 33 c-11 48 -20 51 -15 6 4 -32 3 -34 -4 -14 l-9 25 -1 -25 c-1 -22 -3 -23
-12 -7 -6 10 -8 26 -4 35 8 22 23 112 18 112 -2 0 -8 -12 -13 -26z"/>
<path d="M3440 1759 c0 -5 5 -7 10 -4 6 3 10 8 10 11 0 2 -4 4 -10 4 -5 0 -10
-5 -10 -11z"/>
<path d="M3451 1727 c-15 -39 -13 -47 5 -17 15 25 15 25 8 1 -5 -18 -3 -22 7
-16 9 6 11 3 6 -9 -5 -11 -3 -15 4 -10 7 4 9 2 5 -7 -3 -8 -9 -22 -12 -32 -6
-17 -7 -17 -21 0 -8 10 -12 13 -9 7 6 -11 -33 -28 -43 -19 -2 3 1 5 7 5 9 0 9
5 0 19 -10 16 -9 23 5 39 21 23 22 43 2 36 -8 -3 -20 -24 -26 -45 -13 -40 -18
-43 -101 -43 -9 0 -15 -3 -13 -7 5 -7 -32 -17 -90 -25 -28 -3 -29 -3 -7 8 12
6 22 15 22 20 0 5 -10 2 -22 -6 -28 -20 -50 -21 -24 -1 17 13 17 14 -6 11 -13
-1 -28 -5 -33 -8 -6 -3 -27 -9 -48 -13 -21 -4 -36 -12 -34 -19 5 -13 47 -16
64 -3 7 5 18 5 24 1 8 -4 9 -3 5 4 -10 16 0 15 28 -3 20 -14 27 -14 59 0 25
10 71 15 146 15 111 0 141 5 141 22 0 5 -4 6 -10 3 -13 -8 -13 8 0 21 7 7 5
24 -9 55 l-19 44 -11 -28z m-78 -104 c-7 -2 -21 -2 -30 0 -10 3 -4 5 12 5 17
0 24 -2 18 -5z"/>
<path d="M2605 1630 c-19 -7 -19 -7 1 -14 19 -6 74 7 74 17 0 6 -55 4 -75 -3z"/>
<path d="M2695 1623 c-15 -10 -15 -12 2 -17 19 -6 80 6 106 20 11 6 -1 9 -38
9 -30 0 -62 -5 -70 -12z m32 -9 c-3 -3 -12 -4 -19 -1 -8 3 -5 6 6 6 11 1 17
-2 13 -5z"/>
<path d="M2886 1631 c-3 -5 -15 -7 -25 -4 -11 3 -28 0 -38 -7 -15 -10 -13 -10
15 -6 17 3 32 1 32 -3 0 -14 125 -52 145 -45 13 5 16 4 11 -4 -5 -8 0 -12 15
-12 21 0 21 0 -2 19 -13 11 -25 15 -27 10 -4 -10 -45 -2 -81 18 l-26 13 35 0
c19 0 46 0 60 0 l25 1 -28 15 c-16 9 -31 13 -35 10 -3 -3 1 -7 9 -7 8 -1 -6
-5 -31 -9 -49 -8 -63 -4 -40 10 9 6 10 10 3 10 -6 0 -14 -4 -17 -9z"/>
<path d="M1196 1612 c-3 -5 8 -6 25 -4 16 2 29 6 29 8 0 8 -49 4 -54 -4z"/>
<path d="M1288 1603 c6 -2 18 -2 25 0 6 3 1 5 -13 5 -14 0 -19 -2 -12 -5z"/>
<path d="M2580 1601 c0 -9 34 -21 63 -21 11 0 15 5 11 11 -4 8 1 9 17 5 21 -6
22 -5 6 4 -13 9 -22 9 -31 1 -9 -8 -22 -8 -40 -1 -14 5 -26 6 -26 1z"/>
<path d="M3693 1603 c9 -2 25 -2 35 0 9 3 1 5 -18 5 -19 0 -27 -2 -17 -5z"/>
<path d="M1332 1595 c7 -7 41 -14 103 -20 46 -4 45 -4 -15 10 -71 15 -96 18
-88 10z"/>
<path d="M2978 1593 c7 -3 16 -2 19 1 4 3 -2 6 -13 5 -11 0 -14 -3 -6 -6z"/>
<path d="M3621 1591 c-8 -5 -21 -7 -30 -4 -14 4 -14 3 -1 -5 8 -6 18 -8 23 -5
5 3 21 9 35 13 21 6 22 8 7 9 -11 0 -26 -3 -34 -8z"/>
<path d="M3788 1593 c7 -3 16 -2 19 1 4 3 -2 6 -13 5 -11 0 -14 -3 -6 -6z"/>
<path d="M2578 1573 c7 -3 16 -2 19 1 4 3 -2 6 -13 5 -11 0 -14 -3 -6 -6z"/>
<path d="M3130 1570 c-8 -5 -10 -10 -5 -10 6 0 17 5 25 10 8 5 11 10 5 10 -5
0 -17 -5 -25 -10z"/>
<path d="M3533 1573 c9 -2 23 -2 30 0 6 3 -1 5 -18 5 -16 0 -22 -2 -12 -5z"/>
<path d="M1498 1563 c6 -2 18 -2 25 0 6 3 1 5 -13 5 -14 0 -19 -2 -12 -5z"/>
<path d="M3478 1563 c6 -2 18 -2 25 0 6 3 1 5 -13 5 -14 0 -19 -2 -12 -5z"/>
<path d="M1548 1553 c6 -2 18 -2 25 0 6 3 1 5 -13 5 -14 0 -19 -2 -12 -5z"/>
<path d="M3078 1553 c6 -2 18 -2 25 0 6 3 1 5 -13 5 -14 0 -19 -2 -12 -5z"/>
<path d="M3420 1556 c0 -9 30 -14 35 -6 4 6 -3 10 -14 10 -12 0 -21 -2 -21 -4z"/>
<path d="M1598 1543 c6 -2 18 -2 25 0 6 3 1 5 -13 5 -14 0 -19 -2 -12 -5z"/>
<path d="M3378 1543 c6 -2 18 -2 25 0 6 3 1 5 -13 5 -14 0 -19 -2 -12 -5z"/>
<path d="M1650 1530 c19 -13 30 -13 30 0 0 6 -10 10 -22 10 -19 0 -20 -2 -8
-10z"/>
<path d="M3335 1530 c3 -5 11 -10 16 -10 6 0 7 5 4 10 -3 6 -11 10 -16 10 -6
0 -7 -4 -4 -10z"/>
<path d="M1698 1523 c6 -2 18 -2 25 0 6 3 1 5 -13 5 -14 0 -19 -2 -12 -5z"/>
<path d="M3220 1514 c-54 -13 -54 -14 -10 -9 56 6 103 15 109 21 8 8 -43 1
-99 -12z"/>
<path d="M1740 1510 c0 -7 6 -10 14 -7 7 3 30 2 51 -3 21 -5 34 -5 29 0 -16
15 -94 23 -94 10z"/>
<path d="M4047 1503 c-4 -3 -7 -11 -7 -17 0 -6 5 -5 12 2 6 6 9 14 7 17 -3 3
-9 2 -12 -2z"/>
<path d="M4071 1503 c-1 -6 -4 -20 -7 -30 -5 -17 -5 -17 6 0 6 10 9 23 6 30
-3 9 -5 9 -5 0z"/>
<path d="M1850 1493 c0 -5 23 -10 52 -11 28 -1 50 0 47 2 -9 8 -99 17 -99 9z"/>
<path d="M3120 1490 c0 -13 11 -13 30 0 12 8 11 10 -7 10 -13 0 -23 -4 -23
-10z"/>
<path d="M3063 1483 c9 -2 25 -2 35 0 9 3 1 5 -18 5 -19 0 -27 -2 -17 -5z"/>
<path d="M1968 1473 c6 -2 18 -2 25 0 6 3 1 5 -13 5 -14 0 -19 -2 -12 -5z"/>
<path d="M2970 1470 c-34 -7 -34 -7 -5 -8 17 0 41 4 55 8 33 11 0 11 -50 0z"/>
<path d="M2005 1455 c-20 -16 -20 -16 2 -6 14 7 38 8 74 1 28 -6 68 -9 88 -9
29 1 25 3 -19 9 -30 4 -71 11 -90 14 -25 5 -41 3 -55 -9z"/>
<path d="M2883 1453 c4 -3 2 -12 -3 -18 -8 -9 -2 -10 24 -1 39 12 38 26 -1 26
-15 0 -23 -3 -20 -7z"/>
<path d="M914 1362 c1 -57 -2 -81 -10 -78 -8 3 -8 -4 1 -22 8 -15 16 -47 18
-72 8 -84 35 -121 180 -256 23 -20 132 -92 173 -112 40 -20 78 -23 101 -9 6 4
76 8 155 9 79 1 124 4 100 6 l-42 3 4 52 c5 58 -1 55 96 44 45 -5 48 -5 19 3
-52 13 -89 20 -134 25 -46 6 -135 25 -295 66 -221 57 -240 62 -240 71 0 4 -8
8 -18 8 -37 0 -85 75 -87 135 0 6 -4 13 -10 17 -5 4 2 11 15 16 25 9 25 9 3
16 -20 6 -23 15 -26 84 l-4 77 1 -83z"/>
<path d="M2823 1443 c9 -2 25 -2 35 0 9 3 1 5 -18 5 -19 0 -27 -2 -17 -5z"/>
<path d="M4079 1360 c-7 -105 -12 -141 -29 -185 -14 -38 -49 -75 -70 -75 -9 0
-20 -4 -26 -9 -17 -17 -279 -88 -454 -122 -30 -6 -62 -13 -70 -14 -8 -2 -24
-4 -35 -5 -17 0 -18 -2 -4 -10 11 -6 16 -26 18 -60 l1 -50 -42 -1 c-37 0 -40
-2 -20 -10 13 -5 28 -6 34 -3 13 8 214 4 263 -5 27 -5 49 -3 68 6 15 8 33 11
39 7 7 -4 8 -3 4 4 -4 7 7 18 26 28 37 19 106 71 160 122 22 21 41 31 49 27 8
-5 10 -4 5 4 -4 6 8 29 28 52 33 39 45 73 61 172 4 24 11 37 21 37 8 0 12 5 9
10 -4 6 -10 8 -15 5 -5 -3 -11 34 -12 82 l-3 88 -6 -95z"/>
<path d="M2221 1436 c2 -2 22 -7 44 -10 28 -4 36 -3 25 4 -14 9 -78 15 -69 6z"/>
<path d="M2720 1430 c0 -6 11 -8 28 -4 39 10 40 14 4 14 -18 0 -32 -5 -32 -10z"/>
<path d="M2343 1423 c15 -2 37 -2 50 0 12 2 0 4 -28 4 -27 0 -38 -2 -22 -4z"/>
<path d="M2623 1423 c15 -2 39 -2 55 0 15 2 2 4 -28 4 -30 0 -43 -2 -27 -4z"/>
<path d="M2468 1413 c17 -2 47 -2 65 0 17 2 3 4 -33 4 -36 0 -50 -2 -32 -4z"/>
<path d="M1420 1368 c-11 -18 -20 -42 -20 -53 0 -11 -7 -31 -16 -44 -13 -18
-14 -25 -5 -31 9 -5 11 -22 5 -56 -11 -77 -19 -93 -45 -87 -16 4 -20 2 -17 -8
2 -8 19 -15 36 -17 38 -4 49 14 60 97 5 34 11 63 13 65 2 2 20 6 39 10 l36 6
-1 -57 c0 -80 23 -83 59 -10 24 51 56 77 91 77 11 0 12 -6 5 -26 -14 -35 -12
-50 6 -68 25 -25 69 -19 108 14 90 80 19 192 -72 115 -19 -15 -33 -21 -37 -15
-11 17 -61 11 -89 -11 l-26 -20 0 26 c0 24 -3 26 -22 21 -13 -4 -40 -10 -60
-13 -43 -6 -46 2 -23 52 l13 30 1 -28 c1 -35 22 -32 35 5 22 62 -39 83 -74 26z
m350 -114 c0 -27 -32 -64 -55 -64 -19 0 -19 23 0 60 24 46 55 48 55 4z"/>
<path d="M2847 1393 c-4 -3 -7 -18 -7 -31 0 -14 -5 -54 -11 -90 l-11 -64 -39
58 c-21 32 -41 71 -45 87 -4 22 -11 27 -27 25 -18 -3 -23 -14 -33 -74 -7 -39
-17 -87 -22 -108 -13 -45 -7 -66 18 -66 15 0 20 11 25 48 15 109 15 109 65 32
61 -94 100 -106 100 -32 1 20 7 66 15 102 20 91 19 120 -3 120 -10 0 -22 -3
-25 -7z"/>
<path d="M3172 1376 c-11 -14 -23 -41 -26 -60 -4 -23 -13 -36 -27 -39 -23 -6
-17 -27 7 -27 11 0 14 -15 14 -65 0 -52 -4 -69 -19 -82 -25 -21 -18 -33 18
-33 25 0 29 5 35 38 3 20 6 61 6 90 l0 52 41 0 c40 0 41 -1 36 -29 -15 -75 34
-96 97 -40 35 30 56 32 56 4 0 -7 -9 -17 -20 -20 -21 -7 -27 -39 -10 -50 15
-9 67 22 112 67 l40 40 -7 -51 c-6 -46 -5 -51 12 -51 12 0 36 23 63 63 l44 62
11 -40 c11 -37 15 -40 49 -43 21 -2 44 2 52 8 11 10 15 9 20 -4 8 -20 53 -21
81 -1 18 13 22 13 33 0 23 -28 90 -16 90 16 0 21 -20 25 -38 7 -16 -16 -24 8
-26 75 -1 52 -1 52 -35 55 -30 3 -40 -3 -86 -52 -64 -70 -92 -74 -101 -16 -6
34 -10 40 -31 40 -15 0 -39 -14 -59 -34 -29 -29 -33 -31 -30 -12 3 11 7 51 11
89 5 61 4 67 -14 67 -22 0 -31 -19 -31 -64 0 -25 -11 -46 -41 -80 l-42 -47
-18 27 c-16 24 -16 30 -3 48 19 28 18 46 -4 46 -22 0 -52 -30 -52 -52 0 -16
-57 -78 -72 -78 -4 0 -8 23 -8 50 0 55 1 54 -67 41 -42 -8 -43 -8 -43 20 0 32
18 48 31 28 12 -20 32 3 27 32 -5 35 -50 38 -76 5z m708 -101 c0 -13 -30 -63
-46 -76 -15 -13 -16 -12 -9 11 10 33 35 70 46 70 5 0 9 -2 9 -5z"/>
<path d="M1221 1363 c-17 -36 -133 -193 -143 -193 -15 0 -8 -31 8 -37 10 -3
29 7 52 30 29 28 48 37 87 42 50 7 50 7 68 -29 9 -20 24 -36 33 -36 21 0 17
18 -30 132 -20 48 -36 94 -36 103 0 25 -26 17 -39 -12z m29 -95 c0 -10 -6 -18
-14 -18 -8 0 -22 -3 -31 -6 -14 -6 -13 0 6 29 24 35 39 33 39 -5z"/>
<path d="M2276 1368 c-9 -12 -16 -39 -16 -59 0 -21 -7 -42 -16 -50 -17 -14
-44 -62 -44 -79 0 -6 11 -22 25 -35 28 -29 88 -34 122 -10 14 10 24 12 28 5 9
-15 81 -12 95 5 16 19 3 38 -22 32 -11 -3 -26 -3 -33 -1 -21 9 8 55 44 70 51
21 36 33 -39 32 -62 0 -70 -3 -70 -19 0 -11 7 -19 16 -19 11 0 14 -5 10 -16
-3 -9 -6 -18 -6 -22 0 -3 -11 5 -25 18 -30 29 -31 41 -5 65 16 14 20 29 18 59
-3 38 -5 41 -35 44 -23 2 -35 -3 -47 -20z m35 -51 c-8 -8 -11 -7 -11 4 0 9 3
19 7 23 4 4 9 2 11 -4 3 -7 -1 -17 -7 -23z m-6 -150 c-14 -7 -55 7 -55 19 0 3
5 15 11 27 12 21 12 21 35 -8 20 -25 21 -31 9 -38z"/>
<path d="M3287 1383 c-15 -14 -7 -43 12 -43 17 0 31 18 31 41 0 10 -33 12 -43
2z"/>
<path d="M663 1333 c15 -2 39 -2 55 0 15 2 2 4 -28 4 -30 0 -43 -2 -27 -4z"/>
<path d="M4283 1333 c15 -2 39 -2 55 0 15 2 2 4 -28 4 -30 0 -43 -2 -27 -4z"/>
<path d="M572 1308 c-21 -23 -46 -77 -39 -85 3 -2 10 11 18 29 17 42 44 72 58
63 6 -3 11 -1 11 4 0 18 -25 12 -48 -11z"/>
<path d="M758 1323 c6 -2 18 -2 25 0 6 3 1 5 -13 5 -14 0 -19 -2 -12 -5z"/>
<path d="M4162 1313 c-24 -8 -41 -18 -38 -20 3 -3 26 2 51 11 24 10 49 15 55
11 5 -3 10 -1 10 4 0 15 -26 13 -78 -6z"/>
<path d="M4398 1315 c18 -8 35 -22 38 -32 10 -30 27 -63 31 -59 7 7 -23 71
-41 89 -10 9 -27 17 -39 17 -18 -1 -16 -4 11 -15z"/>
<path d="M800 1310 c0 -5 7 -6 17 -3 11 4 14 3 9 -5 -5 -8 -2 -10 9 -6 8 4 22
1 30 -6 9 -7 15 -8 15 -2 0 5 -14 15 -31 21 -39 14 -49 14 -49 1z"/>
<path d="M2951 1285 c-33 -38 -45 -69 -39 -106 4 -31 51 -38 79 -13 18 17 20
17 32 0 16 -22 75 -18 91 6 14 24 1 33 -28 20 -13 -6 -27 -8 -30 -5 -3 4 -6
35 -6 70 l0 63 -34 0 c-26 0 -41 -8 -65 -35z m59 -17 c0 -19 -38 -78 -50 -78
-14 0 -13 5 10 50 20 39 40 53 40 28z"/>
<path d="M1957 1304 c-3 -3 -27 -7 -54 -8 -35 -1 -48 -5 -48 -16 0 -10 13 -17
38 -20 l38 -5 -46 -52 c-53 -60 -57 -78 -17 -69 15 4 53 6 84 6 66 -1 98 12
98 40 0 23 -17 25 -42 7 -9 -8 -32 -11 -52 -9 l-36 4 40 45 c43 49 52 83 22
83 -10 0 -21 -3 -25 -6z"/>
<path d="M520 1181 c0 -29 15 -33 18 -5 1 13 -3 24 -8 24 -6 0 -10 -9 -10 -19z"/>
<path d="M4463 1175 c5 -37 17 -42 17 -7 0 18 -5 32 -10 32 -6 0 -9 -11 -7
-25z"/>
<path d="M4467 1013 c-2 -5 -1 -19 4 -33 7 -23 7 -23 8 8 1 31 -3 40 -12 25z"/>
<path d="M522 980 c0 -14 2 -19 5 -12 2 6 2 18 0 25 -3 6 -5 1 -5 -13z"/>
<path d="M531 935 c-1 -28 32 -96 56 -118 12 -10 30 -19 42 -20 11 -1 21 -4
21 -8 0 -4 15 -12 33 -19 17 -6 47 -18 66 -26 26 -12 36 -12 45 -3 8 9 8 10
-2 5 -7 -4 -23 -1 -35 7 -12 8 -37 18 -56 22 -25 5 -30 10 -20 16 11 7 9 9 -8
9 -12 0 -24 4 -28 10 -3 5 -13 6 -22 3 -11 -4 -14 -3 -9 5 4 7 2 12 -4 12 -6
0 -8 5 -4 13 6 9 5 9 -7 0 -18 -14 -35 8 -55 72 -7 22 -13 31 -13 20z"/>
<path d="M4455 916 c-4 -20 -11 -33 -16 -30 -5 3 -6 -2 -3 -10 3 -9 1 -16 -5
-16 -6 0 -11 -7 -11 -16 0 -8 -4 -13 -9 -10 -11 7 -36 -22 -27 -32 13 -12 64
55 76 99 6 22 9 43 6 46 -2 3 -8 -11 -11 -31z"/>
<path d="M3264 929 c-3 -5 6 -9 20 -9 31 0 34 6 6 13 -11 3 -23 1 -26 -4z"/>
<path d="M3333 933 c9 -2 23 -2 30 0 6 3 -1 5 -18 5 -16 0 -22 -2 -12 -5z"/>
<path d="M1773 913 c9 -2 23 -2 30 0 6 3 -1 5 -18 5 -16 0 -22 -2 -12 -5z"/>
<path d="M1829 909 c-10 -6 -7 -9 14 -9 29 0 35 5 14 13 -8 3 -20 1 -28 -4z"/>
<path d="M3134 908 c-6 -10 19 -9 71 1 40 9 40 9 -13 8 -30 -1 -56 -5 -58 -9z"/>
<path d="M1898 893 c12 -2 30 -2 40 0 9 3 -1 5 -23 4 -22 0 -30 -2 -17 -4z"/>
<path d="M2956 889 c-109 -11 -120 -20 -16 -13 47 3 89 10 95 15 5 5 7 8 5 8
-3 -1 -41 -5 -84 -10z"/>
<path d="M3073 893 c9 -2 25 -2 35 0 9 3 1 5 -18 5 -19 0 -27 -2 -17 -5z"/>
<path d="M1978 883 c12 -2 30 -2 40 0 9 3 -1 5 -23 4 -22 0 -30 -2 -17 -4z"/>
<path d="M2060 879 c0 -5 19 -9 42 -9 49 0 47 5 -4 13 -21 3 -38 2 -38 -4z"/>
<path d="M2248 883 c7 -3 16 -2 19 1 4 3 -2 6 -13 5 -11 0 -14 -3 -6 -6z"/>
<path d="M2240 870 l-65 -7 73 -1 c47 -1 71 2 67 8 -3 6 -7 9 -8 8 -1 -1 -31
-4 -67 -8z"/>
<path d="M2655 869 c-60 -5 -54 -6 45 -6 111 -1 133 2 60 9 -19 2 -66 0 -105
-3z"/>
<path d="M2403 863 c32 -2 81 -2 110 0 29 2 3 3 -58 3 -60 0 -84 -1 -52 -3z"/>
<path d="M1720 813 c14 -3 30 -8 35 -12 6 -4 26 -4 45 0 l35 7 -37 -1 c-20 -1
-40 2 -44 6 -4 4 -19 6 -33 6 l-26 -2 25 -4z"/>
<path d="M3240 816 c0 -9 37 -12 55 -5 15 6 11 8 -17 8 -21 1 -38 -1 -38 -3z"/>
<path d="M3184 803 c4 -4 24 -8 44 -9 28 -2 32 0 17 6 -25 11 -71 13 -61 3z"/>
<path d="M4350 802 c0 -15 -78 -42 -84 -28 -2 6 -5 3 -5 -6 -1 -22 3 -22 64 6
32 14 45 25 37 30 -7 4 -12 3 -12 -2z"/>
<path d="M1848 793 c6 -2 18 -2 25 0 6 3 1 5 -13 5 -14 0 -19 -2 -12 -5z"/>
<path d="M3105 791 c-16 -3 -25 -9 -20 -12 6 -4 26 -1 45 7 37 13 25 16 -25 5z"/>
<path d="M1876 781 c-12 -5 3 -8 40 -8 42 -1 52 1 34 7 -32 10 -50 10 -74 1z"/>
<path d="M3421 786 c-2 -20 62 -86 95 -96 19 -7 38 -10 40 -7 3 3 -4 8 -15 12
-23 7 -29 35 -7 35 8 0 24 9 37 20 l24 19 -82 1 c-55 0 -83 4 -86 13 -3 6 -6
8 -6 3z"/>
<path d="M3038 773 c6 -2 18 -2 25 0 6 3 1 5 -13 5 -14 0 -19 -2 -12 -5z"/>
<path d="M3345 770 l-40 -7 35 -1 c19 -1 42 3 50 8 16 11 14 11 -45 0z"/>
<path d="M1419 756 c7 -8 23 -17 36 -20 16 -4 25 -13 25 -26 0 -11 2 -20 5
-20 18 0 53 26 67 51 l17 29 -81 0 c-68 0 -79 -2 -69 -14z"/>
<path d="M1638 763 c12 -2 32 -2 45 0 12 2 2 4 -23 4 -25 0 -35 -2 -22 -4z"/>
<path d="M1720 760 c0 -5 14 -10 32 -10 36 0 35 4 -4 14 -17 4 -28 2 -28 -4z"/>
<path d="M1980 766 c0 -9 30 -14 35 -6 4 6 -3 10 -14 10 -12 0 -21 -2 -21 -4z"/>
<path d="M2995 760 c3 -5 10 -10 16 -10 5 0 9 5 9 10 0 6 -7 10 -16 10 -8 0
-12 -4 -9 -10z"/>
<path d="M3240 760 c-24 -8 -23 -8 8 -9 20 -1 31 3 27 9 -3 6 -7 10 -8 9 -1
-1 -13 -5 -27 -9z"/>
<path d="M2025 750 c-8 -13 5 -13 25 0 13 8 13 10 -2 10 -9 0 -20 -4 -23 -10z"/>
<path d="M2948 753 c6 -2 18 -2 25 0 6 3 1 5 -13 5 -14 0 -19 -2 -12 -5z"/>
<path d="M840 740 c12 -7 8 -10 -15 -10 -26 -1 -27 -2 -12 -11 13 -8 22 -7 32
1 16 13 11 30 -8 30 -7 0 -6 -4 3 -10z"/>
<path d="M1803 743 c9 -2 23 -2 30 0 6 3 -1 5 -18 5 -16 0 -22 -2 -12 -5z"/>
<path d="M1860 740 c-12 -8 -9 -10 13 -10 15 0 27 5 27 10 0 13 -20 13 -40 0z"/>
<path d="M2061 741 c-9 -6 -5 -8 13 -8 14 0 26 3 26 8 0 11 -21 11 -39 0z"/>
<path d="M2908 743 c7 -3 16 -2 19 1 4 3 -2 6 -13 5 -11 0 -14 -3 -6 -6z"/>
<path d="M3105 740 c-3 -5 3 -10 14 -10 12 0 21 5 21 10 0 6 -6 10 -14 10 -8
0 -18 -4 -21 -10z"/>
<path d="M3173 743 c9 -2 23 -2 30 0 6 3 -1 5 -18 5 -16 0 -22 -2 -12 -5z"/>
<path d="M4211 739 c-14 -5 -30 -8 -38 -5 -15 6 -27 -10 -14 -18 5 -3 29 3 53
13 44 20 43 28 -1 10z"/>
<path d="M1953 724 c0 -7 16 -15 35 -19 47 -9 48 -3 3 16 -29 12 -38 13 -38 3z"/>
<path d="M2110 736 c0 -2 7 -6 15 -10 8 -3 15 -1 15 4 0 6 -7 10 -15 10 -8 0
-15 -2 -15 -4z"/>
<path d="M2840 730 c-20 -6 -21 -8 -5 -8 11 0 29 3 40 8 25 11 -1 11 -35 0z"/>
<path d="M1918 723 c7 -3 16 -2 19 1 4 3 -2 6 -13 5 -11 0 -14 -3 -6 -6z"/>
<path d="M2202 713 c58 -22 64 -28 47 -49 -12 -15 -12 -17 1 -12 8 2 15 13 15
24 0 20 -31 39 -80 48 -18 4 -11 -1 17 -11z"/>
<path d="M3000 713 c-48 -17 -16 -16 45 1 35 10 41 14 20 13 -16 -1 -46 -7
-65 -14z"/>
<path d="M4127 709 c7 -7 15 -10 18 -7 3 3 -2 9 -12 12 -14 6 -15 5 -6 -5z"/>
<path d="M880 700 c0 -5 4 -10 9 -10 5 0 16 -3 25 -6 10 -4 16 -1 16 7 0 7 -3
9 -6 6 -4 -3 -15 -2 -25 4 -13 6 -19 6 -19 -1z"/>
<path d="M2040 700 c0 -5 6 -10 13 -10 6 0 23 -3 37 -6 18 -4 16 -1 -9 10 -39
19 -41 19 -41 6z"/>
<path d="M2740 695 c-20 -24 -5 -45 32 -44 27 1 29 2 8 6 -38 7 -48 22 -26 39
11 8 15 14 9 14 -6 0 -16 -7 -23 -15z"/>
<path d="M2920 700 c8 -5 22 -10 30 -10 13 0 13 1 0 10 -8 5 -22 10 -30 10
-13 0 -13 -1 0 -10z"/>
<path d="M1450 690 c-13 -8 -12 -10 3 -10 9 0 17 5 17 10 0 12 -1 12 -20 0z"/>
<path d="M4065 689 c-4 -6 -14 -8 -22 -5 -9 4 -21 2 -27 -3 -6 -5 -31 -14 -56
-20 l-45 -11 45 6 c25 3 49 9 54 14 5 5 14 6 20 4 6 -2 29 2 51 10 36 13 37
15 13 15 -15 1 -30 -4 -33 -10z"/>
<path d="M950 680 c0 -6 7 -10 15 -10 8 0 15 2 15 4 0 2 -7 6 -15 10 -8 3 -15
1 -15 -4z"/>
<path d="M1405 680 c-3 -5 1 -10 9 -10 9 0 16 5 16 10 0 6 -4 10 -9 10 -6 0
-13 -4 -16 -10z"/>
<path d="M2125 680 c-3 -5 1 -10 9 -10 9 0 16 5 16 10 0 6 -4 10 -9 10 -6 0
-13 -4 -16 -10z"/>
<path d="M2898 683 c7 -3 16 -2 19 1 4 3 -2 6 -13 5 -11 0 -14 -3 -6 -6z"/>
<path d="M2858 673 c7 -3 16 -2 19 1 4 3 -2 6 -13 5 -11 0 -14 -3 -6 -6z"/>
<path d="M3578 673 c7 -3 16 -2 19 1 4 3 -2 6 -13 5 -11 0 -14 -3 -6 -6z"/>
<path d="M998 663 c7 -3 16 -2 19 1 4 3 -2 6 -13 5 -11 0 -14 -3 -6 -6z"/>
<path d="M1050 660 c-20 -6 -21 -8 -5 -8 11 0 29 3 40 8 25 11 -1 11 -35 0z"/>
<path d="M1315 660 c-27 -7 -27 -8 -5 -8 14 0 36 4 50 8 20 6 21 8 5 8 -11 0
-33 -4 -50 -8z"/>
<path d="M2200 660 c0 -5 7 -10 16 -10 8 0 12 5 9 10 -3 6 -10 10 -16 10 -5 0
-9 -4 -9 -10z"/>
<path d="M2818 663 c7 -3 16 -2 19 1 4 3 -2 6 -13 5 -11 0 -14 -3 -6 -6z"/>
<path d="M3628 663 c7 -3 16 -2 19 1 4 3 -2 6 -13 5 -11 0 -14 -3 -6 -6z"/>
<path d="M3807 641 c-15 -26 -15 -30 -1 -35 9 -3 12 -11 8 -18 -4 -7 -4 -10 1
-6 10 9 38 -19 30 -31 -3 -5 -1 -13 5 -16 6 -4 10 -3 9 2 -3 20 2 27 11 13 5
-8 13 -11 17 -6 4 5 1 11 -7 14 -20 7 -70 58 -70 71 0 6 23 12 53 13 47 1 48
2 12 5 -22 3 -42 9 -45 14 -3 5 -14 -4 -23 -20z"/>
<path d="M1102 648 c-9 -4 6 -7 35 -7 46 -1 77 -13 55 -23 -4 -1 -17 -16 -30
-32 -12 -16 -22 -26 -22 -23 0 3 -17 -1 -37 -10 -21 -9 -54 -20 -73 -24 l-35
-8 40 2 c22 1 42 4 45 7 3 3 23 10 45 16 22 5 39 15 38 21 -3 16 35 12 41 -4
6 -15 -23 -32 -42 -26 -7 3 -11 -1 -10 -9 2 -7 -4 -12 -13 -10 -9 1 -16 -4
-16 -12 0 -13 5 -13 31 1 37 19 86 63 86 77 0 6 -5 3 -11 -7 -10 -18 -12 -18
-26 3 -11 15 -12 24 -4 34 23 28 -49 53 -97 34z"/>
<path d="M1260 650 c-9 -6 -10 -10 -3 -10 6 0 15 5 18 10 8 12 4 12 -15 0z"/>
<path d="M3673 653 c9 -2 23 -2 30 0 6 3 -1 5 -18 5 -16 0 -22 -2 -12 -5z"/>
<path d="M3725 650 c3 -5 10 -10 16 -10 5 0 9 5 9 10 0 6 -7 10 -16 10 -8 0
-12 -4 -9 -10z"/>
<path d="M3750 611 c0 -6 5 -11 11 -11 5 0 7 -5 4 -11 -10 -15 33 -57 85 -84
48 -24 127 -45 100 -26 -8 6 -26 11 -40 11 -20 0 -22 2 -10 11 12 8 10 9 -9 4
-16 -5 -21 -4 -17 4 5 7 -2 11 -16 11 -34 1 -61 23 -45 39 9 10 8 11 -7 5 -16
-6 -18 -4 -13 11 7 16 5 16 -10 4 -15 -12 -16 -12 -10 3 3 9 -1 22 -9 28 -10
9 -14 9 -14 1z"/>
<path d="M496 591 c-3 -5 1 -12 10 -15 10 -4 13 -2 8 6 -5 8 -2 9 10 5 10 -4
22 -7 28 -7 6 0 5 -6 -2 -15 -11 -13 -10 -14 5 -9 12 5 16 4 12 -3 -5 -7 0 -9
13 -6 11 3 23 10 26 15 4 6 -2 7 -16 3 -14 -5 -20 -3 -16 3 3 6 -8 15 -26 21
-38 13 -45 14 -52 2z"/>
<path d="M4447 588 c-25 -9 -29 -28 -6 -28 6 0 8 4 5 9 -3 5 7 11 23 13 24 3
29 1 28 -14 -1 -10 -6 -19 -12 -19 -5 -1 -14 -2 -20 -4 -5 -1 -19 -3 -30 -4
-17 -1 -18 -3 -5 -11 13 -8 13 -10 -2 -11 -20 -2 -37 -5 -40 -9 -2 -1 -18 -3
-36 -5 -36 -3 -70 -25 -40 -25 9 0 20 5 23 10 4 6 11 8 16 4 13 -8 135 34 149
51 15 18 9 49 -10 52 -8 1 -27 -3 -43 -9z"/>
<path d="M491 563 c-1 -12 36 -43 51 -43 5 0 8 5 8 10 0 6 -9 10 -21 10 -13 0
-18 4 -13 12 4 6 3 8 -4 4 -5 -3 -13 0 -15 6 -4 9 -6 10 -6 1z"/>
<path d="M4395 560 c3 -5 8 -10 11 -10 2 0 4 5 4 10 0 6 -5 10 -11 10 -5 0 -7
-4 -4 -10z"/>
<path d="M623 553 c10 -15 43 -22 58 -12 12 7 11 9 -1 9 -8 0 -26 3 -39 7 -16
4 -22 2 -18 -4z"/>
<path d="M4330 550 c-20 -6 -21 -8 -5 -8 11 0 29 3 40 8 25 11 -1 11 -35 0z"/>
<path d="M3910 540 c8 -5 20 -10 25 -10 6 0 3 5 -5 10 -8 5 -19 10 -25 10 -5
0 -3 -5 5 -10z"/>
<path d="M696 531 c-3 -5 17 -9 45 -10 28 0 56 -4 62 -7 8 -5 9 -4 2 3 -13 14
-103 25 -109 14z"/>
<path d="M4275 530 c4 -6 11 -8 16 -5 14 9 11 15 -7 15 -8 0 -12 -5 -9 -10z"/>
<path d="M600 515 c-7 -9 -8 -15 -2 -15 5 0 12 7 16 15 3 8 4 15 2 15 -2 0 -9
-7 -16 -15z"/>
<path d="M3958 523 c6 -2 18 -2 25 0 6 3 1 5 -13 5 -14 0 -19 -2 -12 -5z"/>
<path d="M4223 523 c9 -2 23 -2 30 0 6 3 -1 5 -18 5 -16 0 -22 -2 -12 -5z"/>
<path d="M823 514 c8 -9 156 -8 164 0 4 3 -33 6 -82 6 -49 0 -85 -3 -82 -6z"/>
<path d="M4053 513 c26 -2 67 -2 90 0 23 2 2 3 -48 3 -49 0 -68 -1 -42 -3z"/>
<path d="M660 490 c20 -13 43 -13 35 0 -3 6 -16 10 -28 10 -18 0 -19 -2 -7
-10z"/>
<path d="M790 475 c-24 -14 -24 -14 20 -13 25 0 35 3 22 5 -12 2 -20 9 -17 14
8 12 5 11 -25 -6z"/>
<path d="M1088 483 c7 -3 16 -2 19 1 4 3 -2 6 -13 5 -11 0 -14 -3 -6 -6z"/>
<path d="M723 473 c9 -2 23 -2 30 0 6 3 -1 5 -18 5 -16 0 -22 -2 -12 -5z"/>
<path d="M990 468 c0 -10 26 -9 60 2 20 6 17 7 -17 7 -24 -1 -43 -5 -43 -9z"/>
<path d="M4190 470 c-24 -8 -24 -8 7 -9 17 -1 35 4 38 9 7 11 -9 11 -45 0z"/>
<path d="M4258 473 c6 -2 18 -2 25 0 6 3 1 5 -13 5 -14 0 -19 -2 -12 -5z"/>
<path d="M3983 463 c9 -2 25 -2 35 0 9 3 1 5 -18 5 -19 0 -27 -2 -17 -5z"/>
<path d="M888 453 c12 -2 32 -2 45 0 12 2 2 4 -23 4 -25 0 -35 -2 -22 -4z"/>
<path d="M4073 453 c15 -2 37 -2 50 0 12 2 0 4 -28 4 -27 0 -38 -2 -22 -4z"/>
</g>
</svg>
